<svg xmlns="http://www.w3.org/2000/svg" width="216.906" height="120.861" viewBox="0 0 216.906 120.861"><path d="M221.562,5686.515l25.795-15.2-5.917-1.466,20.352-12.019s-7.784-9.482-22.011-3.423l-39.759,18.865-1.423-2.455,43.315-25.731v-2.208l-24.372,8.827-.955-2.949,11.126-5.878-4.739-4.9s-33.445,9.993-57.74,26.724l-9.231-8.58c1.649-1.418-56.548,19.385-106.956,93.642l7.323,9.075s16.494-29.986,36.164-34.709l-21.717,25.14,6.621,6.13,15.692-16.929s9.038-10.73,16.49-6.362l-13.255,13.733,7.855,4.867s40.14-36.078,44.68-34.041c0,0-20.932,17.934-24.849,26.229l7.586,2.945,22-16.672,2.133,2.7-13.77,14.9,6.437,5.2c8.982-12.867,50.166-37.017,50.166-37.017l67.352-33.274c.334-4.831-44.831,4.932-44.389,4.835m-55.313-12.491c-1.091.967-26.574,17.51-31.393,19.9s-23.678,15.554-23.678,15.554L110.21,5707c-.376-1.715,52.637-38.179,55.281-37.122,0,0,3.637,1.586.758,4.149" transform="translate(-49.047 -5637.983)" fill="#28256b"/></svg>