<svg xmlns="http://www.w3.org/2000/svg" width="216.906" height="120.86" viewBox="0 0 216.906 120.86"><path d="M221.562,5909.9l25.795-15.194-5.917-1.466,20.352-12.02s-7.784-9.482-22.011-3.422l-39.759,18.864-1.423-2.455,43.315-25.731v-2.208l-24.372,8.828-.955-2.949,11.126-5.879-4.739-4.9s-33.445,9.993-57.74,26.724L156,5879.517c1.649-1.418-56.548,19.385-106.956,93.643l7.323,9.074s16.494-29.986,36.164-34.708l-21.717,25.139,6.621,6.13,15.692-16.929s9.038-10.73,16.49-6.361l-13.255,13.732,7.855,4.868s40.14-36.078,44.68-34.042c0,0-20.932,17.934-24.849,26.23l7.586,2.944,22-16.671,2.133,2.7-13.77,14.9,6.437,5.2c8.982-12.868,50.166-37.018,50.166-37.018l67.352-33.274c.334-4.83-44.831,4.932-44.389,4.835m-55.313-12.491c-1.091.967-26.574,17.51-31.393,19.9s-23.678,15.554-23.678,15.554l-.968-2.482c-.376-1.714,52.637-38.179,55.281-37.121,0,0,3.637,1.585.758,4.148" transform="translate(-49.047 -5861.374)" fill="#cd5b20"/></svg>