<svg xmlns="http://www.w3.org/2000/svg" width="51" height="51" viewBox="0 0 51 51"><g transform="translate(-147.941 838.259)"><path d="M14.693,49.85a18.374,18.374,0,0,1-6.07-1.162A12.26,12.26,0,0,1,4.2,45.8a12.244,12.244,0,0,1-2.883-4.428A18.311,18.311,0,0,1,.151,35.308C.029,32.641,0,31.79,0,25s.029-7.64.151-10.307a18.333,18.333,0,0,1,1.162-6.07A12.274,12.274,0,0,1,4.2,4.2,12.279,12.279,0,0,1,8.624,1.313,18.328,18.328,0,0,1,14.693.151C17.359.029,18.211,0,25,0s7.641.029,10.308.151a18.311,18.311,0,0,1,6.068,1.162A12.263,12.263,0,0,1,45.8,4.2a12.268,12.268,0,0,1,2.885,4.428,18.4,18.4,0,0,1,1.162,6.07C49.971,17.36,50,18.211,50,25s-.03,7.641-.15,10.308a18.38,18.38,0,0,1-1.162,6.068,12.794,12.794,0,0,1-7.312,7.313,18.357,18.357,0,0,1-6.068,1.162C32.641,49.972,31.79,50,25,50S17.359,49.972,14.693,49.85Zm.2-45.2a13.8,13.8,0,0,0-4.641.86,7.748,7.748,0,0,0-2.875,1.87,7.759,7.759,0,0,0-1.87,2.875A13.851,13.851,0,0,0,4.65,14.9C4.53,17.535,4.5,18.325,4.5,25s.025,7.466.146,10.1a13.858,13.858,0,0,0,.86,4.642,7.756,7.756,0,0,0,1.87,2.874,7.726,7.726,0,0,0,2.875,1.87,13.8,13.8,0,0,0,4.641.861c2.636.121,3.426.146,10.1.146s7.466-.025,10.1-.146a13.8,13.8,0,0,0,4.642-.861,8.282,8.282,0,0,0,4.745-4.744A13.828,13.828,0,0,0,45.35,35.1c.12-2.637.146-3.426.146-10.1s-.026-7.465-.146-10.1a13.822,13.822,0,0,0-.861-4.641,7.715,7.715,0,0,0-1.87-2.875,7.744,7.744,0,0,0-2.875-1.87,13.8,13.8,0,0,0-4.642-.86c-2.636-.122-3.427-.146-10.1-.146S17.534,4.53,14.9,4.651ZM12.162,25A12.838,12.838,0,1,1,25,37.838,12.838,12.838,0,0,1,12.162,25Zm4.505,0A8.333,8.333,0,1,0,25,16.667,8.333,8.333,0,0,0,16.667,25ZM35.345,11.655a3,3,0,1,1,3,3A3,3,0,0,1,35.345,11.655Z" transform="translate(148.441 -837.759)" fill="#fff"/><path d="M25,50.5c-6.763,0-7.652-.029-10.33-.151a18.971,18.971,0,0,1-6.228-1.2,12.734,12.734,0,0,1-4.6-3,12.716,12.716,0,0,1-3-4.6,18.909,18.909,0,0,1-1.2-6.226C-.471,32.656-.5,31.768-.5,25s.029-7.655.152-10.33a18.933,18.933,0,0,1,1.2-6.228,12.746,12.746,0,0,1,3-4.6,12.751,12.751,0,0,1,4.6-3,18.924,18.924,0,0,1,6.228-1.2C17.344-.471,18.233-.5,25-.5s7.656.029,10.331.152a18.908,18.908,0,0,1,6.226,1.2,12.735,12.735,0,0,1,4.6,3,12.739,12.739,0,0,1,3,4.6,19,19,0,0,1,1.2,6.228c.122,2.7.151,3.592.151,10.33s-.029,7.632-.151,10.33a18.979,18.979,0,0,1-1.2,6.226,13.294,13.294,0,0,1-7.6,7.6,18.956,18.956,0,0,1-6.226,1.2C32.653,50.472,31.763,50.5,25,50.5Zm0-50c-6.745,0-7.629.029-10.284.151A17.977,17.977,0,0,0,8.8,1.779,11.8,11.8,0,0,0,4.549,4.55a11.791,11.791,0,0,0-2.77,4.256A17.985,17.985,0,0,0,.651,14.716C.529,17.372.5,18.256.5,25s.029,7.629.151,10.285a17.962,17.962,0,0,0,1.128,5.909,11.762,11.762,0,0,0,2.77,4.256,11.779,11.779,0,0,0,4.256,2.772,18.023,18.023,0,0,0,5.911,1.128c2.659.121,3.543.15,10.284.15s7.625-.029,10.285-.15a18.007,18.007,0,0,0,5.91-1.128,12.294,12.294,0,0,0,7.027-7.028,18.03,18.03,0,0,0,1.128-5.91c.121-2.679.15-3.567.15-10.285s-.029-7.6-.15-10.284A18.054,18.054,0,0,0,48.222,8.8,11.784,11.784,0,0,0,45.45,4.549a11.78,11.78,0,0,0-4.256-2.77A17.961,17.961,0,0,0,35.285.651C32.629.529,31.745.5,25,.5ZM25,46c-6.694,0-7.486-.026-10.125-.146a14.258,14.258,0,0,1-4.8-.895,8.189,8.189,0,0,1-3.048-1.983,8.221,8.221,0,0,1-1.982-3.046,14.328,14.328,0,0,1-.894-4.8C4.03,32.485,4,31.693,4,25s.026-7.485.146-10.125a14.312,14.312,0,0,1,.894-4.8A8.224,8.224,0,0,1,7.027,7.028a8.212,8.212,0,0,1,3.048-1.983,14.259,14.259,0,0,1,4.8-.894c2.62-.121,3.409-.146,10.125-.146s7.5.026,10.125.146a14.259,14.259,0,0,1,4.8.894,8.21,8.21,0,0,1,3.047,1.983,8.178,8.178,0,0,1,1.983,3.047,14.294,14.294,0,0,1,.895,4.8C45.97,17.535,46,18.331,46,25s-.026,7.465-.146,10.125a14.311,14.311,0,0,1-.895,4.8,8.782,8.782,0,0,1-5.03,5.029,14.259,14.259,0,0,1-4.8.895C32.486,45.97,31.694,46,25,46Zm0-40.99c-6.694,0-7.478.025-10.079.145a13.321,13.321,0,0,0-4.483.827,7.283,7.283,0,0,0-2.7,1.758,7.293,7.293,0,0,0-1.758,2.7,13.372,13.372,0,0,0-.827,4.483C5.03,17.542,5,18.33,5,25s.025,7.458.145,10.08a13.388,13.388,0,0,0,.827,4.484,7.291,7.291,0,0,0,1.758,2.7,7.26,7.26,0,0,0,2.7,1.758,13.32,13.32,0,0,0,4.483.828c2.621.12,3.408.145,10.08.145s7.459-.025,10.079-.145a13.321,13.321,0,0,0,4.484-.828,7.782,7.782,0,0,0,4.46-4.459,13.371,13.371,0,0,0,.828-4.484C44.971,32.438,45,31.648,45,25s-.025-7.438-.145-10.08a13.354,13.354,0,0,0-.828-4.483,7.249,7.249,0,0,0-1.757-2.7,7.281,7.281,0,0,0-2.7-1.758,13.321,13.321,0,0,0-4.484-.827C32.478,5.031,31.694,5.005,25,5.005Zm0,33.332a13.337,13.337,0,1,1,9.431-3.906A13.252,13.252,0,0,1,25,38.338Zm0-25.675a12.337,12.337,0,1,0,8.724,3.614A12.258,12.258,0,0,0,25,12.663Zm0,21.172A8.834,8.834,0,1,1,33.833,25,8.844,8.844,0,0,1,25,33.834Zm0-16.667A7.834,7.834,0,1,0,32.833,25,7.842,7.842,0,0,0,25,17.167Zm13.345-2.012a3.5,3.5,0,1,1,3.5-3.5A3.5,3.5,0,0,1,38.345,15.156Zm0-6a2.5,2.5,0,1,0,2.5,2.5A2.5,2.5,0,0,0,38.345,9.155Z" transform="translate(148.441 -837.759)" fill="rgba(0,0,0,0)"/></g></svg>