<svg xmlns="http://www.w3.org/2000/svg" width="50.822" height="35.575" viewBox="0 0 50.822 35.575"><path d="M1062.7,7488.325a6.362,6.362,0,0,0-4.493-4.493c-3.963-1.062-19.856-1.062-19.856-1.062s-15.892,0-19.856,1.062a6.363,6.363,0,0,0-4.493,4.493c-1.062,3.963-1.062,12.233-1.062,12.233s0,8.269,1.062,12.232a6.363,6.363,0,0,0,4.493,4.493c3.964,1.062,19.856,1.062,19.856,1.062s15.893,0,19.856-1.062a6.362,6.362,0,0,0,4.493-4.493c1.062-3.963,1.062-12.232,1.062-12.232S1063.762,7492.288,1062.7,7488.325Zm-29.431,19.856v-15.247l13.2,7.624Z" transform="translate(-1012.94 -7482.77)" fill="#fff"/></svg>