<svg xmlns="http://www.w3.org/2000/svg" width="49.76" height="50" viewBox="0 0 49.76 50"><path d="M752.372,999.636a24.776,24.776,0,1,1,21.469,12.408h-.01a24.748,24.748,0,0,1-11.839-3.016l-13.135,3.445Zm10.979,5.354a20.564,20.564,0,0,0,10.481,2.869h.008a20.593,20.593,0,1,0-17.445-9.65l.49.779-2.081,7.6,7.794-2.044Zm14.533-6.188a36.051,36.051,0,0,1-3.53-1.3c-6.21-2.682-10.265-8.935-10.576-9.347s-2.526-3.357-2.526-6.4a6.947,6.947,0,0,1,2.165-5.165,2.275,2.275,0,0,1,1.651-.775c.413,0,.825,0,1.187.022.044,0,.091,0,.14,0,.36,0,.809,0,1.253,1.062.516,1.238,1.754,4.287,1.908,4.6a1.138,1.138,0,0,1,.052,1.085,4.241,4.241,0,0,1-.619,1.033c-.31.361-.65.806-.929,1.084-.31.308-.632.643-.271,1.263a18.62,18.62,0,0,0,3.444,4.289,16.881,16.881,0,0,0,4.978,3.072c.619.311.98.258,1.341-.155s1.548-1.807,1.961-2.427.824-.516,1.392-.31,3.612,1.7,4.23,2.014,1.032.464,1.186.723a5.176,5.176,0,0,1-.361,2.944c-.516,1.446-2.989,2.767-4.178,2.944a10.155,10.155,0,0,1-1.5.119A7.857,7.857,0,0,1,777.884,998.8Z" transform="translate(-748.857 -962.474)" fill="#fff"/></svg>