<svg xmlns="http://www.w3.org/2000/svg" width="36.575" height="36.575" viewBox="0 0 36.575 36.575"><g transform="translate(-103.939 118.5)"><path d="M10.453,35.468a13.06,13.06,0,0,1-4.316-.826A8.717,8.717,0,0,1,2.985,32.59,8.717,8.717,0,0,1,.933,29.439a13.044,13.044,0,0,1-.826-4.318C.02,23.225,0,22.618,0,17.788s.02-5.438.107-7.334A13.054,13.054,0,0,1,.933,6.135a8.721,8.721,0,0,1,2.052-3.15A8.7,8.7,0,0,1,6.136.934,13.011,13.011,0,0,1,10.453.107C12.351.02,12.956,0,17.787,0s5.437.02,7.334.107a13.018,13.018,0,0,1,4.318.827A8.7,8.7,0,0,1,32.59,2.985a8.707,8.707,0,0,1,2.051,3.15,13.052,13.052,0,0,1,.827,4.319c.087,1.9.107,2.5.107,7.334s-.02,5.436-.107,7.332a13.041,13.041,0,0,1-.827,4.318,9.093,9.093,0,0,1-5.2,5.2,13.067,13.067,0,0,1-4.318.826c-1.9.087-2.5.107-7.334.107S12.351,35.555,10.453,35.468ZM10.6,3.308a9.821,9.821,0,0,0-3.3.613A5.507,5.507,0,0,0,5.251,5.252,5.488,5.488,0,0,0,3.921,7.3a9.8,9.8,0,0,0-.613,3.3c-.086,1.875-.1,2.438-.1,7.188s.018,5.312.1,7.187a9.808,9.808,0,0,0,.613,3.3,5.51,5.51,0,0,0,1.329,2.047A5.536,5.536,0,0,0,7.3,31.654a9.821,9.821,0,0,0,3.3.613c1.875.086,2.437.1,7.187.1s5.314-.018,7.188-.1a9.837,9.837,0,0,0,3.3-.613,5.884,5.884,0,0,0,3.376-3.376,9.838,9.838,0,0,0,.612-3.3c.086-1.875.1-2.438.1-7.187s-.018-5.314-.1-7.188a9.832,9.832,0,0,0-.612-3.3,5.5,5.5,0,0,0-1.331-2.045,5.5,5.5,0,0,0-2.045-1.331,9.837,9.837,0,0,0-3.3-.613c-1.876-.086-2.438-.1-7.188-.1S12.475,3.223,10.6,3.308ZM8.653,17.788a9.135,9.135,0,1,1,9.134,9.133A9.136,9.136,0,0,1,8.653,17.788Zm3.206,0a5.929,5.929,0,1,0,5.928-5.931A5.929,5.929,0,0,0,11.858,17.788Zm13.289-9.5a2.135,2.135,0,1,1,2.135,2.134A2.135,2.135,0,0,1,25.148,8.293Z" transform="translate(104.439 -118)" fill="#fff"/><path d="M17.787,36.075c-4.833,0-5.464-.021-7.357-.108a13.619,13.619,0,0,1-4.475-.86,9.191,9.191,0,0,1-3.323-2.165A9.191,9.191,0,0,1,.467,29.62a13.61,13.61,0,0,1-.86-4.477C-.479,23.252-.5,22.622-.5,17.788s.021-5.466.108-7.357a13.621,13.621,0,0,1,.86-4.477A9.2,9.2,0,0,1,2.632,2.632,9.176,9.176,0,0,1,5.955.468a13.57,13.57,0,0,1,4.475-.86C12.323-.479,12.954-.5,17.787-.5s5.465.021,7.357.108A13.583,13.583,0,0,1,29.62.468a9.175,9.175,0,0,1,3.323,2.164,9.179,9.179,0,0,1,2.164,3.323,13.618,13.618,0,0,1,.86,4.477c.087,1.891.108,2.522.108,7.357s-.021,5.464-.108,7.355a13.606,13.606,0,0,1-.861,4.476,9.593,9.593,0,0,1-5.487,5.488,13.633,13.633,0,0,1-4.476.86C23.251,36.055,22.621,36.075,17.787,36.075ZM17.787.5c-4.811,0-5.437.02-7.311.107A12.623,12.623,0,0,0,6.318,1.4,8.222,8.222,0,0,0,3.339,3.339,8.24,8.24,0,0,0,1.4,6.316a12.673,12.673,0,0,0-.793,4.16C.52,12.35.5,12.976.5,17.788S.52,23.225.607,25.1a12.662,12.662,0,0,0,.793,4.16,8.236,8.236,0,0,0,1.939,2.978,8.236,8.236,0,0,0,2.978,1.939,12.671,12.671,0,0,0,4.158.793c1.875.086,2.5.107,7.311.107s5.437-.02,7.311-.107a12.685,12.685,0,0,0,4.16-.793,8.593,8.593,0,0,0,4.917-4.918,12.659,12.659,0,0,0,.794-4.16c.086-1.873.107-2.5.107-7.31s-.02-5.438-.107-7.311a12.671,12.671,0,0,0-.794-4.161,8.225,8.225,0,0,0-1.939-2.978A8.221,8.221,0,0,0,29.258,1.4,12.636,12.636,0,0,0,25.1.607C23.224.52,22.6.5,17.787.5Zm0,32.37c-4.763,0-5.327-.018-7.209-.1a10.281,10.281,0,0,1-3.462-.647A6,6,0,0,1,4.9,30.679a5.977,5.977,0,0,1-1.443-2.221A10.292,10.292,0,0,1,2.809,25c-.086-1.882-.1-2.447-.1-7.209s.018-5.329.1-7.211a10.278,10.278,0,0,1,.646-3.462A5.951,5.951,0,0,1,4.9,4.9,5.978,5.978,0,0,1,7.116,3.455a10.26,10.26,0,0,1,3.461-.646c1.883-.086,2.447-.1,7.21-.1s5.328.018,7.211.1a10.291,10.291,0,0,1,3.462.647A5.965,5.965,0,0,1,30.677,4.9,5.969,5.969,0,0,1,32.12,7.116a10.3,10.3,0,0,1,.645,3.461c.087,1.879.1,2.443.1,7.211s-.018,5.33-.1,7.21a10.308,10.308,0,0,1-.645,3.461,6.384,6.384,0,0,1-3.66,3.661A10.31,10.31,0,0,1,25,32.766C23.115,32.852,22.551,32.87,17.787,32.87Zm0-29.165c-4.74,0-5.3.018-7.164.1a9.323,9.323,0,0,0-3.144.579A4.986,4.986,0,0,0,5.6,5.606,5.022,5.022,0,0,0,4.388,7.478a9.339,9.339,0,0,0-.58,3.145c-.085,1.864-.1,2.424-.1,7.166s.018,5.3.1,7.164A9.353,9.353,0,0,0,4.387,28.1,4.982,4.982,0,0,0,5.6,29.972a5.008,5.008,0,0,0,1.874,1.216,9.342,9.342,0,0,0,3.145.579c1.864.085,2.423.1,7.164.1s5.3-.018,7.166-.1a9.37,9.37,0,0,0,3.145-.579,5.062,5.062,0,0,0,1.873-1.217A5,5,0,0,0,31.188,28.1a9.37,9.37,0,0,0,.579-3.145c.086-1.86.1-2.419.1-7.164s-.018-5.305-.1-7.165a9.356,9.356,0,0,0-.578-3.145,4.976,4.976,0,0,0-1.218-1.872A4.973,4.973,0,0,0,28.1,4.387a9.351,9.351,0,0,0-3.145-.579C23.088,3.723,22.528,3.7,17.787,3.7Zm0,23.717a9.635,9.635,0,1,1,9.635-9.633A9.645,9.645,0,0,1,17.787,27.422Zm0-18.269a8.635,8.635,0,1,0,8.635,8.636A8.645,8.645,0,0,0,17.787,9.153Zm0,15.064a6.43,6.43,0,1,1,6.43-6.428A6.436,6.436,0,0,1,17.787,24.217Zm0-11.859a5.43,5.43,0,1,0,5.43,5.431A5.436,5.436,0,0,0,17.787,12.357Zm9.5-1.431a2.634,2.634,0,1,1,2.635-2.634A2.637,2.637,0,0,1,27.283,10.926Zm0-4.269a1.634,1.634,0,1,0,1.635,1.635A1.637,1.637,0,0,0,27.283,6.658Z" transform="translate(104.439 -118)" fill="rgba(0,0,0,0)"/></g></svg>