<svg xmlns="http://www.w3.org/2000/svg" width="35.405" height="35.577" viewBox="0 0 35.405 35.577"><path d="M858.739,7509.21a17.629,17.629,0,1,1,15.276,8.831h-.008a17.639,17.639,0,0,1-8.425-2.146l-9.344,2.451Zm7.812,3.81a14.636,14.636,0,0,0,7.459,2.043h.006A14.656,14.656,0,1,0,861.6,7508.2l.349.553-1.481,5.408,5.545-1.455Zm10.34-4.4a24.983,24.983,0,0,1-2.51-.928c-4.419-1.908-7.3-6.357-7.525-6.649a8.574,8.574,0,0,1-1.8-4.559,4.937,4.937,0,0,1,1.542-3.673,1.612,1.612,0,0,1,1.174-.551c.294,0,.589,0,.843.015h.1c.257,0,.577,0,.894.757.368.881,1.247,3.049,1.359,3.27a.813.813,0,0,1,.036.772,3.073,3.073,0,0,1-.44.736c-.221.257-.464.574-.662.771-.219.219-.449.459-.192.9a13.264,13.264,0,0,0,2.451,3.051,12.034,12.034,0,0,0,3.542,2.187c.441.221.7.183.955-.111s1.1-1.285,1.394-1.727.587-.366.991-.221,2.57,1.213,3.011,1.434.734.33.843.513a3.7,3.7,0,0,1-.257,2.1c-.368,1.028-2.126,1.968-2.974,2.095a7.233,7.233,0,0,1-1.067.084A5.6,5.6,0,0,1,876.89,7508.617Z" transform="translate(-856.239 -7482.77)" fill="#fff"/></svg>