<svg xmlns="http://www.w3.org/2000/svg" width="73.106" height="51.175" viewBox="0 0 73.106 51.175"><path d="M1040.674,970.465A9.157,9.157,0,0,0,1034.21,964c-5.7-1.528-28.562-1.528-28.562-1.528s-22.861,0-28.562,1.528a9.157,9.157,0,0,0-6.464,6.463c-1.527,5.7-1.527,17.6-1.527,17.6s0,11.895,1.527,17.6a9.155,9.155,0,0,0,6.464,6.463c5.7,1.528,28.562,1.528,28.562,1.528s22.861,0,28.562-1.528a9.155,9.155,0,0,0,6.464-6.463c1.527-5.7,1.527-17.6,1.527-17.6S1042.2,976.167,1040.674,970.465Zm-42.337,28.563V977.1l18.993,10.966Z" transform="translate(-969.095 -962.474)" fill="#fff"/></svg>