<svg xmlns="http://www.w3.org/2000/svg" width="202.383" height="90" viewBox="0 0 202.383 90"><g transform="translate(-286.727 -19)"><path d="M464.531,45.866l-5.25-.392,13.008-7.6C461.24,23.3,442.948,43.059,424.88,46.807c5.777-3.418,21.373-10.727,32.52-17.162l-.627-3.213-18.1,5.721,8.542-4.545-4.493-5.015a157.076,157.076,0,0,0-42.838,18.728l-6.556-5.25c-30.55,12.368-57.454,33.77-80.567,65.566L319.326,109C333.9,90.276,339.563,86.915,344.4,84.969l-16.091,16.4,7.21,5.433c9.773-11.222,16.8-18.129,21.941-17.344L347.014,98.97l7.627,4.283L383.5,81.208c-5.526,5-11.727,10.609-15.163,16.456l6.935,2.155c5.056-4.106,10.14-8.2,17.24-11.637l-11.088,10.54,6.125,5.367c14.2-14.857,53.445-37.575,72.093-40.748l9.2-12.747-32.808,8.359C444.842,56.035,454.46,51.424,464.531,45.866ZM400.861,47.6c-6.369,4.741-18.2,11.715-29.5,18.2l-.94-2.612c11.25-6.024,23.026-12.362,30.25-15.9A.186.186,0,0,1,400.861,47.6Z" fill="#cd5b20"/><path d="M399.255,66.084" fill="#28256b"/><path d="M395.964,66.084h-17.24V60.559a.9.9,0,0,0-.9-.9h-.7V75.1a.926.926,0,0,0,1.6,0V67.181h17.632c-.914,14.445-5.825,20.531-19.234,20.531-12.4-1.594-17.309-8.594-17.6-20.531.391-13.923,9.116-19.356,19.2-19.121,12.956.055,17.27,7.245,17.24,18.024" fill="#28256b"/><path d="M434.048,60.311c-.575-7.941-4.274-11.915-17.553-11.232h-17.24V60.311H416a.5.5,0,0,1,.5.5V74.214a.529.529,0,0,1-.529.529h-.616v-13.7c-5.735-.434-10.187-.146-14.053,2.665-4.411,3.237-5.3,8.145-4.44,12.548a11.493,11.493,0,0,0,8.008,8.8,39.666,39.666,0,0,0,10.485,1.379h18.7Z" fill="#28256b"/><path d="M435.144,38.265l.053,48.167h17.031l-.053-48.167Z" fill="#28256b"/><path d="M306.945,38.108V49.079h-5.956a14.262,14.262,0,0,0-14.262,14.262v8.777a14.261,14.261,0,0,0,14.262,14.261h22.255V38.108Zm0,36.517a1.619,1.619,0,0,1-1.62-1.619V62.244h1.62Z" fill="#28256b"/><path d="M324.811,49.079H341.5V74.625h1.019V49.079h16.613V72.313a14.85,14.85,0,0,1-14.85,14.85h-4.623a14.85,14.85,0,0,1-14.85-14.85Z" fill="#28256b"/><path d="M472.811,38.108V49.079h-5.955a14.262,14.262,0,0,0-14.262,14.262v8.777a14.261,14.261,0,0,0,14.262,14.261H489.11V38.108Zm0,36.517a1.619,1.619,0,0,1-1.619-1.619V62.244h1.619Z" fill="#28256b"/><path d="M308.669,19.229h6.891a4.716,4.716,0,0,1,3.373,1.071,4.012,4.012,0,0,1,1.121,3.047,4.135,4.135,0,0,1-1.222,3.176,5.29,5.29,0,0,1-3.729,1.144h-2.27v4.979h-4.164Zm4.164,5.72h1.016a2.619,2.619,0,0,0,1.684-.416,1.344,1.344,0,0,0,.485-1.067,1.485,1.485,0,0,0-.421-1.07,2.183,2.183,0,0,0-1.583-.44h-1.181Z" fill="#222221"/><path d="M322.388,19.229h4.155V32.646h-4.155Z" fill="#222221"/><path d="M329.545,19.229h3.872l5.052,7.423V19.229h3.908V32.646h-3.908l-5.025-7.367v7.367h-3.9Z" fill="#222221"/><path d="M344.189,19.229h12.6v3.313h-4.229v10.1h-4.146v-10.1h-4.229Z" fill="#222221"/><path d="M367.4,19.229h4.137v7.994a6.73,6.73,0,0,1-.37,2.245A4.867,4.867,0,0,1,370,31.316a4.635,4.635,0,0,1-1.661,1.111,8.354,8.354,0,0,1-2.9.448,18.339,18.339,0,0,1-2.137-.137,5.608,5.608,0,0,1-1.936-.544,4.85,4.85,0,0,1-1.423-1.157,4.242,4.242,0,0,1-.884-1.546,8.022,8.022,0,0,1-.384-2.268V19.229h4.137v8.184a2.337,2.337,0,0,0,.609,1.715,2.621,2.621,0,0,0,3.368.009,2.333,2.333,0,0,0,.608-1.724Z" fill="#222221"/><path d="M374.338,32.646V19.229h6.91a10.065,10.065,0,0,1,2.938.329,3.13,3.13,0,0,1,1.638,1.222,3.79,3.79,0,0,1-1.163,5.414,5,5,0,0,1-1.456.531,4.147,4.147,0,0,1,1.079.494,4.2,4.2,0,0,1,.663.706,5.285,5.285,0,0,1,.581.833l2.008,3.888h-4.685l-2.216-4.1a3.125,3.125,0,0,0-.751-1.034,1.734,1.734,0,0,0-1.016-.311H378.5v5.445Zm4.164-7.981h1.748a6.24,6.24,0,0,0,1.1-.183,1.1,1.1,0,0,0,.673-.421,1.36,1.36,0,0,0-.152-1.775,2.488,2.488,0,0,0-1.546-.348H378.5Z" fill="#222221"/><path d="M397.112,30.432H392.4l-.654,2.214h-4.233l5.043-13.417h4.522l5.042,13.417h-4.342Zm-.86-2.9-1.481-4.823L393.3,27.53Z" fill="#222221"/><path d="M402.72,28.207l3.945-.247a3.012,3.012,0,0,0,.521,1.465,2.192,2.192,0,0,0,1.831.814,2.025,2.025,0,0,0,1.368-.416,1.248,1.248,0,0,0,.481-.966,1.23,1.23,0,0,0-.458-.933,5.292,5.292,0,0,0-2.123-.778,9.024,9.024,0,0,1-3.89-1.629,3.279,3.279,0,0,1-1.172-2.591,3.519,3.519,0,0,1,.6-1.954,3.972,3.972,0,0,1,1.8-1.446,8.431,8.431,0,0,1,3.3-.526,6.752,6.752,0,0,1,3.922.956A4.13,4.13,0,0,1,414.453,23l-3.908.228a1.826,1.826,0,0,0-2.032-1.729,1.664,1.664,0,0,0-1.089.306.94.94,0,0,0-.366.746.748.748,0,0,0,.3.577,3.388,3.388,0,0,0,1.391.494,17.461,17.461,0,0,1,3.895,1.185,4.089,4.089,0,0,1,1.711,1.488,3.769,3.769,0,0,1,.536,1.986,4.252,4.252,0,0,1-.714,2.379,4.467,4.467,0,0,1-1.995,1.652,8.054,8.054,0,0,1-3.231.563q-3.424,0-4.741-1.318A5.2,5.2,0,0,1,402.72,28.207Z" fill="#222221"/><path d="M309.716,84.527h-7.465a14.569,14.569,0,0,1-10.419-4.648,11.967,11.967,0,0,1-3.15-8.967V64.731a14.008,14.008,0,0,1,4.237-10.512,12.871,12.871,0,0,1,9.809-3.506h6.989Zm-7.447-.871h6.577V51.583H302.7a12.02,12.02,0,0,0-9.181,3.267,13.147,13.147,0,0,0-3.966,9.874v6.22a11.131,11.131,0,0,0,2.925,8.352A13.7,13.7,0,0,0,302.269,83.656Z" fill="#fff"/><path d="M321.418,84.527H308.846V40.351h12.572Zm-11.7-.871h10.832V41.222H309.716Z" fill="#fff"/><path d="M309.716,77.686h-2.525a4.619,4.619,0,0,1-4.614-4.614v-13.7h7.139Zm-6.268-17.448V73.072a3.748,3.748,0,0,0,3.743,3.744h1.655V60.238Z" fill="#fff"/><rect width="2.612" height="8.682" transform="translate(306.669 51.12)" fill="#fff"/><path d="M344.283,85.314h-4.388a13.092,13.092,0,0,1-13.078-13.078V51.217H339.6V74.43a2.406,2.406,0,0,0,2.639,2.269,2.668,2.668,0,0,0,1.709-.562,2.1,2.1,0,0,0,.736-1.707V51.217h12.678V72.236A13.093,13.093,0,0,1,344.283,85.314Zm-16.6-33.226V72.236a12.221,12.221,0,0,0,12.207,12.207h4.388A12.221,12.221,0,0,0,356.49,72.236V52.088H345.554V74.43a2.973,2.973,0,0,1-1.052,2.377,3.536,3.536,0,0,1-2.264.763,3.282,3.282,0,0,1-3.51-3.14V52.088Z" fill="#fff"/><path d="M381.09,50.939h-4.156a14.156,14.156,0,0,0-14.14,14.14v5.276A14.522,14.522,0,0,0,377.3,84.861h2.849A12.984,12.984,0,0,0,393.062,72.2l.042-2.152H381.731V74.7a3.609,3.609,0,1,1-7.218,0V60.129a3.609,3.609,0,1,1,7.218,0v3.13h11.506l0-.179A12.466,12.466,0,0,0,381.09,50.939Z" fill="none"/><path d="M381.731,60.129a3.609,3.609,0,1,0-7.218,0V74.7a3.609,3.609,0,1,0,7.218,0V70.046H393.1l.019-.871H380.86V74.7a2.738,2.738,0,1,1-5.476,0V60.129a2.738,2.738,0,1,1,5.476,0v4h12.358l.019-.871H381.731Z" fill="#fff"/><path d="M381.09,50.068h-4.156a15.028,15.028,0,0,0-15.011,15.011v5.276A15.393,15.393,0,0,0,377.3,85.731h2.849a13.858,13.858,0,0,0,13.784-13.516l.043-2.169.017-.871h-.871l-.017.871-.042,2.152a12.984,12.984,0,0,1-12.914,12.663H377.3a14.522,14.522,0,0,1-14.505-14.506V65.079a14.156,14.156,0,0,1,14.14-14.14h4.156A12.466,12.466,0,0,1,393.24,63.08l0,.179-.017.871h.87l.021-1.042A13.361,13.361,0,0,0,381.09,50.068Z" fill="#fff"/><path d="M424.718,84.455c-5.7,0-10.935-.087-15.159-.467C402.326,83.5,398.4,79.711,398.807,73.6a10.593,10.593,0,0,1,10.817-10.58h4.052l.027,11.313a2.481,2.481,0,0,0,2.477,2.479h2.477V61.461a3.133,3.133,0,0,0-3.13-3.13H401.711l-.09-7.218h21.651a9.118,9.118,0,0,1,9.108,9.107v24.2l-.433,0C429.484,84.44,427.062,84.455,424.718,84.455ZM409.624,63.894a9.741,9.741,0,0,0-9.948,9.739c-.367,5.585,3.26,9.032,9.951,9.487,5.828.525,13.616.488,21.881.437V60.22a8.246,8.246,0,0,0-8.237-8.237H402.5l.067,5.477h12.957a4.006,4.006,0,0,1,4,4V77.686H416.18a3.352,3.352,0,0,1-3.348-3.348l-.025-10.444Z" fill="#fff"/><path d="M450.246,84.454H437.36v-44.1h12.886Zm-12.016-.871h11.145V41.222H438.23Z" fill="#fff"/><path d="M476.043,84.321h-7.465a14.573,14.573,0,0,1-10.42-4.647,11.973,11.973,0,0,1-3.149-8.968l0-6.181a14.008,14.008,0,0,1,4.238-10.511,12.872,12.872,0,0,1,9.809-3.507h6.989ZM468.6,83.45h6.577V51.377h-6.148a12.027,12.027,0,0,0-9.18,3.267,13.152,13.152,0,0,0-3.967,9.874v6.22A11.134,11.134,0,0,0,458.8,79.09,13.694,13.694,0,0,0,468.6,83.45Z" fill="#fff"/><path d="M487.745,84.321H475.173V40.145h12.572Zm-11.7-.871h10.832V41.016H476.043Z" fill="#fff"/><path d="M476.043,77.481h-2.525a4.62,4.62,0,0,1-4.614-4.615v-13.7h7.139Zm-6.268-17.449V72.866a3.748,3.748,0,0,0,3.743,3.744h1.655V60.032Z" fill="#fff"/><rect width="2.612" height="8.682" transform="translate(472.996 50.914)" fill="#fff"/></g></svg>