<svg xmlns="http://www.w3.org/2000/svg" width="1600" height="37.735" viewBox="0 0 1600 37.735"><path d="M1600,6574.287a13.25,13.25,0,0,0-7.989,1.021l-24.657,11.7-.882-1.521,26.862-15.958v-1.369l-15.114,5.474-.593-1.828,6.9-3.646-2.939-3.038s-20.741,6.2-35.807,16.572l-4.468-4.154.182-.107s-4.828-5.881-13.65-2.122l-24.657,11.7-.882-1.521,26.862-15.958v-1.369l-15.114,5.474-.593-1.828,6.9-3.646-2.939-3.038s-20.741,6.2-35.807,16.572l-4.468-4.154.182-.107s-4.827-5.881-13.65-2.122l-24.657,11.7-.882-1.521L1465,6569.526v-1.369l-15.114,5.474-.593-1.828,6.9-3.646-2.939-3.038s-20.741,6.2-35.807,16.572l-4.468-4.154.182-.107s-4.828-5.881-13.65-2.122l-24.657,11.7-.882-1.521,26.862-15.958v-1.369l-15.114,5.474-.593-1.828,6.9-3.646-2.939-3.038s-20.741,6.2-35.807,16.572l-4.468-4.154.182-.107s-4.828-5.881-13.65-2.122l-24.657,11.7-.882-1.521,26.862-15.958v-1.369l-15.114,5.474-.593-1.828,6.9-3.646-2.939-3.038s-20.741,6.2-35.807,16.572l-4.468-4.154.182-.107s-4.827-5.881-13.65-2.122l-24.657,11.7-.882-1.521,26.862-15.958v-1.369l-15.114,5.474-.593-1.828,6.9-3.646-2.939-3.038s-20.741,6.2-35.807,16.572l-4.468-4.154.182-.107s-4.828-5.881-13.65-2.122l-24.657,11.7-.882-1.521,26.862-15.958v-1.369l-15.114,5.474-.593-1.828,6.9-3.646-2.939-3.038s-20.741,6.2-35.807,16.572l-4.468-4.154.182-.107s-4.828-5.881-13.65-2.122l-24.657,11.7-.882-1.521,26.862-15.958v-1.369l-15.114,5.474-.593-1.828,6.9-3.646-2.939-3.038s-20.741,6.2-35.807,16.572l-4.468-4.154.182-.107s-4.827-5.881-13.65-2.122l-24.657,11.7-.882-1.521L1080,6569.526v-1.369l-15.114,5.474-.593-1.828,6.9-3.646-2.939-3.038s-20.741,6.2-35.807,16.572l-4.468-4.154.182-.107s-4.827-5.881-13.65-2.122l-24.657,11.7-.883-1.521,26.862-15.958v-1.369l-15.114,5.474-.593-1.828,6.9-3.646-2.939-3.038s-20.741,6.2-35.807,16.572l-4.468-4.154.182-.107s-4.828-5.881-13.65-2.122l-24.657,11.7-.882-1.521,26.862-15.958v-1.369l-15.114,5.474-.593-1.828,6.9-3.646-2.939-3.038s-20.741,6.2-35.807,16.572l-4.468-4.154.182-.107s-4.827-5.881-13.65-2.122l-24.657,11.7-.882-1.521,26.862-15.958v-1.369l-15.114,5.474-.593-1.828,6.9-3.646-2.939-3.038s-20.741,6.2-35.807,16.572l-4.468-4.154.183-.107s-4.828-5.881-13.65-2.122l-24.657,11.7-.883-1.521,26.862-15.958v-1.369l-15.114,5.474-.592-1.828,6.9-3.646-2.939-3.038s-20.741,6.2-35.808,16.572l-4.468-4.154.183-.107s-4.828-5.881-13.65-2.122l-24.657,11.7-.883-1.521,26.862-15.958v-1.369l-15.114,5.474-.593-1.828,6.9-3.646-2.939-3.038s-20.741,6.2-35.808,16.572l-4.468-4.154.183-.107s-4.828-5.881-13.65-2.122l-24.657,11.7-.883-1.521L695,6569.526v-1.369l-15.114,5.474-.593-1.828,6.9-3.646-2.939-3.038s-20.741,6.2-35.807,16.572l-4.468-4.154.183-.107s-4.828-5.881-13.65-2.122l-24.657,11.7-.883-1.521,26.862-15.958v-1.369l-15.114,5.474-.592-1.828,6.9-3.646-2.939-3.038s-20.741,6.2-35.808,16.572l-4.468-4.154.183-.107s-4.828-5.881-13.65-2.122l-24.657,11.7-.883-1.521,26.862-15.958v-1.369l-15.114,5.474-.593-1.828,6.9-3.646-2.939-3.038s-20.741,6.2-35.808,16.572l-4.468-4.154.183-.107s-4.828-5.881-13.65-2.122l-24.657,11.7-.883-1.521,26.862-15.958v-1.369l-15.114,5.474-.592-1.828,6.9-3.646-2.939-3.038s-20.741,6.2-35.808,16.572l-4.468-4.154.183-.107s-4.828-5.881-13.65-2.122l-24.657,11.7-.883-1.521,26.862-15.958v-1.369l-15.114,5.474-.592-1.828,6.9-3.646-2.939-3.038s-20.741,6.2-35.807,16.572l-4.468-4.154.182-.107s-4.828-5.881-13.65-2.122l-24.657,11.7-.883-1.521,26.862-15.958v-1.369l-15.114,5.474-.592-1.828,6.9-3.646-2.939-3.038s-20.741,6.2-35.807,16.572l-4.468-4.154.182-.107s-4.827-5.881-13.65-2.122l-24.657,11.7-.883-1.521L310,6569.526v-1.369l-15.114,5.474-.592-1.828,6.9-3.646-2.939-3.038s-20.741,6.2-35.807,16.572l-4.468-4.154.182-.107s-4.827-5.881-13.65-2.122l-24.657,11.7-.883-1.521,26.862-15.958v-1.369l-15.114,5.474-.592-1.828,6.9-3.646-2.939-3.038s-20.741,6.2-35.807,16.572l-4.468-4.154.182-.107s-4.827-5.881-13.65-2.122l-24.657,11.7-.882-1.521,26.862-15.958v-1.369l-15.114,5.474-.593-1.828,6.9-3.646-2.939-3.038s-20.741,6.2-35.807,16.572l-4.468-4.154.182-.107s-4.827-5.881-13.65-2.122l-24.657,11.7-.882-1.521,26.862-15.958v-1.369l-15.114,5.474-.592-1.828,6.9-3.646-2.939-3.038s-20.741,6.2-35.808,16.572l-4.468-4.154.182-.107s-4.827-5.881-13.65-2.122l-24.657,11.7-.882-1.521,26.862-15.958v-1.369l-15.114,5.474-.592-1.828,6.9-3.646-2.939-3.038s-20.741,6.2-35.807,16.572l-5.724-5.321c.04-.035.017-.045-.056-.036v26.52H1600Z" transform="translate(0 -6565.119)" fill="#fff"/></svg>